<svg xmlns="http://www.w3.org/2000/svg" viewBox="0 0 64 64">
  <defs>
    <radialGradient id="rose" cx="32" cy="28" r="22" gradientUnits="userSpaceOnUse">
      <stop offset="0" stop-color="#ff8a8a" />
      <stop offset="0.6" stop-color="#e12d2d" />
      <stop offset="1" stop-color="#9b0f0f" />
    </radialGradient>
    <linearGradient id="leaf" x1="0" x2="1" y1="0" y2="1">
      <stop offset="0" stop-color="#4d8c57" />
      <stop offset="1" stop-color="#2f6b3c" />
    </linearGradient>
  </defs>
  <rect width="64" height="64" rx="12" fill="#fff3f3" />
  <path
    d="M32 12c-7.7 0-14 6.3-14 14 0 5.2 2.8 9.6 7 12-2.6 2.2-4.3 5.6-4.3 9.3 0 6.6 5.4 12 12 12s12-5.4 12-12c0-3.7-1.7-7.1-4.3-9.3 4.2-2.4 7-6.8 7-12 0-7.7-6.3-14-14-14z"
    fill="url(#rose)"
  />
  <path
    d="M28 44c-7 0-12 3-16 8 6-1 10 0 16 4 6-4 10-5 16-4-4-5-9-8-16-8z"
    fill="url(#leaf)"
  />
</svg>
